<svg xmlns="http://www.w3.org/2000/svg" viewBox="0 0 800 240" width="800" height="240">
  <defs>
    <linearGradient id="primaryGrad" x1="0%" y1="0%" x2="100%" y2="100%">
      <stop offset="0%" stop-color="#1d4ed8"/>
      <stop offset="100%" stop-color="#0284c7"/>
    </linearGradient>
    <linearGradient id="accentGrad" x1="0%" y1="0%" x2="100%" y2="100%">
      <stop offset="0%" stop-color="#f59e0b"/>
      <stop offset="100%" stop-color="#d97706"/>
    </linearGradient>
    <filter id="shadow" x="-10%" y="-10%" width="120%" height="120%">
      <feDropShadow dx="0" dy="4" stdDeviation="6" flood-color="#0f172a" flood-opacity="0.12"/>
    </filter>
  </defs>

  <!-- Background container for high-contrast crispness -->
  <rect width="800" height="240" rx="16" fill="#ffffff" fill-opacity="0"/>

  <!-- Logo Mark (Shield & Dynamic Geometric Pillars) -->
  <g transform="translate(30, 25)" filter="url(#shadow)">
    <!-- Base Shield -->
    <path d="M95 10 L165 42 C165 110, 135 155, 95 180 C55 155, 25 110, 25 42 Z" fill="#0f172a" />
    <!-- Gradient Inner Crest -->
    <path d="M95 24 L152 50 C152 104, 128 142, 95 164 C62 142, 38 104, 38 50 Z" fill="url(#primaryGrad)" />
    
    <!-- Stylized Human Resource & Industrial Wings (W / M / Team Geometry) -->
    <path d="M95 44 L132 80 L118 80 L95 58 L72 80 L58 80 Z" fill="#ffffff" opacity="0.95"/>
    <path d="M95 68 L126 102 L112 102 L95 84 L78 102 L64 102 Z" fill="#38bdf8" />
    <path d="M95 92 L120 124 L108 124 L95 108 L82 124 L70 124 Z" fill="url(#accentGrad)" />

    <!-- Core Golden Star/Sparkle of Quality -->
    <circle cx="95" cy="140" r="6" fill="#ffffff" />
  </g>

  <!-- Typography: Brand Name -->
  <g transform="translate(240, 50)">
    <!-- Arabic / Primary Corporate Name -->
    <text x="0" y="44" font-family="system-ui, -apple-system, sans-serif" font-weight="900" font-size="34" letter-spacing="1.5" fill="#0f172a">
      AL MATHABIRIH
    </text>
    
    <text x="350" y="44" font-family="system-ui, -apple-system, sans-serif" font-weight="700" font-size="24" letter-spacing="2" fill="#2563eb">
      HR CO.
    </text>

    <!-- Subtitle / English Operations Division -->
    <text x="0" y="84" font-family="system-ui, -apple-system, sans-serif" font-weight="800" font-size="22" letter-spacing="3" fill="#1e40af">
      EQUIPWORKFORCE GLOBAL
    </text>

    <!-- Accreditation & Standards Line -->
    <text x="0" y="118" font-family="system-ui, -apple-system, sans-serif" font-weight="600" font-size="13" letter-spacing="1.2" fill="#64748b">
      INTERNATIONAL MANPOWER SUPPLY &amp; TECHNICAL RECRUITMENT · ISO 9001
    </text>

    <line x1="0" y1="134" x2="520" y2="134" stroke="#e2e8f0" stroke-width="2" />
  </g>
</svg>